<svg width="66" height="52" fill="none" xmlns="http://www.w3.org/2000/svg">
  <path d="M22.947 10.54c1.648-3.233 6.279-3.233 7.927 0l2.052 4.023a4.446 4.446 0 0 0 3.262 2.37l4.484.713c3.58.57 5.009 4.944 2.451 7.507l-3.228 3.235a4.427 4.427 0 0 0-1.24 3.816l.709 4.5c.564 3.578-3.18 6.285-6.415 4.638l-4.017-2.045a4.458 4.458 0 0 0-4.044 0l-4.016 2.045c-3.235 1.647-6.979-1.06-6.415-4.638l.71-4.5a4.427 4.427 0 0 0-1.242-3.817l-3.227-3.234c-2.558-2.563-1.13-6.937 2.45-7.507l4.484-.714a4.446 4.446 0 0 0 3.263-2.369l2.052-4.024Z" fill="#FFE550"/>
  <path d="m1.817 33.079-.035.008c.004.12-.002.608-.02 1.463a166.39 166.39 0 0 0-.005 1.678c0 .256-.006.464-.017.624l.002.547a3.675 3.675 0 0 1-.033.481l-.03.336c-.023.212-.069.326-.138.343-.15.035-.384-.08-.703-.345-.321-.276-.506-.518-.555-.725-.05-.207-.06-1.724-.034-4.55.038-2.828-.037-4.688-.223-5.58a.674.674 0 0 1 .023-.443c.058-.27.358-.522.899-.76.552-.24 1.376-.49 2.472-.749 1.108-.262 1.987-.41 2.637-.442.662-.035 1.017.051 1.066.259.033.138-.042.259-.225.363a9.59 9.59 0 0 1-.486.26c-.145.06-.334.134-.568.226a44.8 44.8 0 0 0-.659.229c-.205.06-.47.148-.797.262-.315.11-.607.216-.875.316-.272.089-.637.218-1.097.387-.46.17-.757.277-.892.32.02.033.037.083.054.152.127.541.196 1.837.206 3.889a17.946 17.946 0 0 0 2.29-.596c.814-.266 1.314-.42 1.498-.465.439-.103.68-.063.723.121.085.357-.347.775-1.293 1.254-.935.477-1.997.855-3.185 1.137Zm11.298-3.184a3.262 3.262 0 0 0-.452-1.06c-.211-.327-.457-.542-.738-.646-.744.407-1.285 1.185-1.622 2.334-.329 1.136-.388 2.146-.179 3.033.21.886.56 1.386 1.05 1.501.792-.357 1.363-1.088 1.711-2.191.357-1.118.434-2.108.23-2.971ZM8.6 31.127c.191-.993.542-1.854 1.052-2.582.52-.743 1.119-1.195 1.8-1.356.692-.164 1.338-.007 1.938.47.598.467.996 1.12 1.195 1.96.196.83.195 1.729-.002 2.699a6.16 6.16 0 0 1-1.168 2.555c-.57.73-1.254 1.19-2.05 1.379-.588.139-1.143-.015-1.663-.464-.52-.448-.878-1.086-1.074-1.915-.199-.84-.208-1.755-.028-2.746Zm12.356-3.088a3.266 3.266 0 0 0-.451-1.06c-.211-.327-.457-.542-.738-.646-.744.407-1.285 1.185-1.622 2.335-.329 1.135-.388 2.146-.179 3.032.21.886.56 1.387 1.05 1.502.792-.358 1.363-1.089 1.71-2.192.358-1.118.434-2.108.23-2.971Zm-4.514 1.232c.191-.993.542-1.854 1.052-2.582.519-.743 1.119-1.195 1.8-1.356.692-.164 1.338-.007 1.938.471.598.466.996 1.12 1.194 1.96.196.828.196 1.728-.001 2.698a6.14 6.14 0 0 1-1.169 2.555c-.57.731-1.253 1.19-2.05 1.379-.588.14-1.142-.015-1.662-.463-.52-.449-.878-1.087-1.074-1.916-.199-.84-.208-1.755-.028-2.746Zm12.7-11.373c.184-.044.45.076.797.358.356.268.57.552.64.851.07.3.128 1.185.172 2.658.04 1.46.047 2.984.02 4.57-.036 3.558-.186 5.368-.452 5.431-.161.038-.363-.017-.606-.166-.233-.164-.368-.32-.403-.47-.035-.15-.066-.459-.091-.927-.859 1.419-1.71 2.228-2.551 2.427-.508.12-1.024 0-1.548-.363-.513-.365-.828-.794-.945-1.29-.168-.713-.178-1.604-.029-2.672a9.12 9.12 0 0 1 1.042-3.09c.537-.979 1.215-1.564 2.034-1.758.819-.194 1.505.16 2.06 1.062.011-2.58-.121-4.584-.398-6.013-.082-.345.004-.548.258-.608Zm.1 8.927c-.146-.621-.38-1.12-.7-1.493-.308-.377-.612-.53-.912-.459-.496.118-.932.543-1.307 1.276a7.58 7.58 0 0 0-.748 2.4c-.115.855-.104 1.57.032 2.145a.64.64 0 0 0 .343.447.83.83 0 0 0 .582.063c.45-.107.979-.572 1.588-1.397.62-.827 1-1.72 1.14-2.676l.003-.22-.02-.086Zm11.047-1.046c.223.944-.016 1.839-.717 2.685-.704.835-1.61 1.384-2.718 1.646-1.096.26-2.068.192-2.917-.203-.851-.406-1.337-.862-1.457-1.369-.081-.345-.018-.542.19-.591.184-.044.613.146 1.286.57.254.147.574.265.961.356.398.088.794.086 1.186-.007.808-.191 1.474-.568 2-1.13.536-.564.747-1.088.633-1.571-.074-.311-.375-.66-.905-1.044-.53-.385-1.099-.73-1.707-1.036a13.39 13.39 0 0 1-1.698-1.075c-.532-.397-.833-.74-.9-1.027a2.793 2.793 0 0 1-.044-.956c.04-.35.11-.615.214-.798.333-.601.923-1.221 1.771-1.86.86-.64 1.613-1.037 2.259-1.19.334-.08.643-.037.925.127.283.164.452.367.51.609.027.115-.072.236-.299.362a25.81 25.81 0 0 1-1.042.539c-.46.218-.862.447-1.208.687-1.207.82-1.755 1.466-1.643 1.938.06.253.902.801 2.527 1.644.625.326 1.216.74 1.773 1.24.566.486.906.97 1.02 1.454Zm3.973.864c.052.219.205.298.459.238.438-.104.94-.35 1.506-.74.575-.403.897-.612.966-.629.208-.05.337.036.39.254.078.334-.177.802-.766 1.403-.577.598-1.148.964-1.714 1.098-.553.131-1.05.09-1.49-.121-.443-.223-.702-.496-.779-.819-.076-.322-.103-.747-.082-1.274.019-.54.059-1.248.12-2.125.069-.892.114-1.626.136-2.202-.512.255-.86.404-1.045.448-.184.044-.39-.005-.619-.145-.22-.155-.35-.319-.39-.491-.066-.276.622-.719 2.062-1.327-.018-1.004-.115-1.875-.289-2.611-.081-.346-.007-.546.224-.6.196-.047.468.023.817.207.345.174.555.416.628.727.074.31.105.88.094 1.71a19.514 19.514 0 0 1 1.554-.46c.692-.163 1.074-.096 1.145.204.04.172-.116.361-.47.566-.341.203-1.084.567-2.227 1.093-.027.966-.086 2.08-.178 3.342-.094 1.25-.111 2.001-.052 2.254Zm7.742-9.051c.519-.123 1.06.028 1.624.454.56.414.892.834.992 1.26.098.415.055.874-.13 1.38.179.14.283.273.313.4.077.322.132.892.167 1.71.047.816.081 1.349.104 1.598.034.248.057.449.07.604.01.143.013.288.011.435.022.298-.048.467-.21.505-.207.05-.422-.088-.645-.412-.214-.339-.4-.793-.56-1.363-.72 1.544-1.517 2.42-2.394 2.627-.53.125-1.109.025-1.734-.3-.617-.341-.982-.753-1.096-1.236-.164-.69-.111-1.603.157-2.736a10.33 10.33 0 0 1 1.328-3.194c.62-.986 1.287-1.563 2.003-1.732Zm1.514 2.85c-.253-1.07-.593-1.555-1.02-1.454-.45.107-.898.553-1.346 1.34a9.592 9.592 0 0 0-1.013 2.518c-.225.904-.281 1.592-.17 2.064a.605.605 0 0 0 .357.426c.189.077.393.09.612.037.542-.128 1.068-.635 1.577-1.521.507-.898.769-1.902.786-3.012-.006-.181.068-.308.221-.38l-.004-.018Z" fill="#2C2C2C"/>
  <path d="M49.97 32.459a1.492 1.492 0 0 0-1.047.98c-3.099 9.184-11.776 15.79-21.985 15.79-6.191 0-11.82-2.43-15.982-6.392a1.495 1.495 0 0 0-1.385-.38c-1.041.258-1.436 1.515-.665 2.259A25.88 25.88 0 0 0 26.938 52c11.504 0 21.262-7.484 24.677-17.852.336-1.017-.603-1.947-1.646-1.69ZM3.03 22.991c.564-.14.982-.608 1.085-1.178C6.085 10.977 15.561 2.772 26.94 2.772c7.398 0 13.993 3.47 18.243 8.877.358.456.947.676 1.511.536.951-.235 1.381-1.337.782-2.11C42.723 3.945 35.291 0 26.938 0 14.129 0 3.485 9.28 1.35 21.488c-.168.963.729 1.739 1.68 1.503ZM66 8.664c-6.14 11.766-8.834 4.005-17.477 8.564C49.388 3.57 58.541 11.88 66 8.664Z" fill="#BBF330"/>
</svg>
