<svg aria-hidden="true" style="position: absolute; width: 0; height: 0; overflow: hidden;" version="1.1" xmlns="http://www.w3.org/2000/svg" xmlns:xlink="http://www.w3.org/1999/xlink">
<defs>
<symbol id="icon-logo" viewBox="0 0 36 32">
<path fill="#ffe550" style="fill: var(--color1, #ffe550)" d="M14.733 8.449c1.446-2.817 5.48-2.817 6.926 0 0.567 1.084 1.6 1.857 2.826 2.057l0.022 0.003c3.118 0.493 4.381 4.323 2.144 6.551-0.702 0.699-1.136 1.667-1.136 2.735 0 0.213 0.017 0.423 0.051 0.627l-0.003-0.022c0.494 3.117-2.785 5.468-5.601 4.043-0.514-0.264-1.122-0.419-1.766-0.419s-1.252 0.155-1.788 0.429l0.022-0.010c-2.816 1.424-6.096-0.927-5.601-4.043 0.030-0.182 0.048-0.391 0.048-0.605 0-1.069-0.434-2.036-1.136-2.735l-0-0c-2.237-2.227-0.974-6.057 2.144-6.55 1.248-0.203 2.282-0.976 2.838-2.039l0.010-0.021z"></path>
<path fill="#2c2c2c" style="fill: var(--color2, #2c2c2c)" d="M2.709 20.651l-0.021 0.005c0.002 0.074-0.001 0.373-0.011 0.898-0.004 0.523-0.004 0.866-0.003 1.030 0 0.157-0.004 0.284-0.010 0.383l0.001 0.335c-0 0.104-0.007 0.207-0.021 0.307l0.001-0.012-0.019 0.206c-0.014 0.131-0.042 0.201-0.085 0.21-0.093 0.022-0.237-0.048-0.433-0.211-0.198-0.169-0.312-0.318-0.343-0.445s-0.038-1.057-0.022-2.792c0.022-1.736-0.024-2.878-0.139-3.425-0.011-0.035-0.017-0.075-0.017-0.116 0-0.056 0.011-0.11 0.032-0.158l-0.001 0.003c0.036-0.165 0.22-0.32 0.553-0.466 0.341-0.147 0.849-0.301 1.525-0.459 0.682-0.161 1.224-0.251 1.625-0.27 0.408-0.022 0.626 0.031 0.657 0.158 0.020 0.085-0.026 0.159-0.139 0.223s-0.213 0.117-0.3 0.16c-0.089 0.036-0.206 0.082-0.35 0.138-0.146 0.050-0.281 0.097-0.406 0.141-0.125 0.038-0.29 0.091-0.491 0.161-0.194 0.068-0.374 0.132-0.54 0.194-0.168 0.054-0.393 0.133-0.676 0.237s-0.467 0.169-0.55 0.196c0.013 0.019 0.023 0.050 0.033 0.093 0.079 0.332 0.122 1.128 0.129 2.386 0.555-0.106 1.029-0.232 1.49-0.388l-0.078 0.023c0.502-0.163 0.809-0.257 0.923-0.284 0.27-0.063 0.418-0.039 0.446 0.074 0.052 0.22-0.213 0.476-0.797 0.769-0.576 0.292-1.23 0.525-1.963 0.696zM9.672 18.701c-0.058-0.247-0.154-0.464-0.283-0.658l0.005 0.007c-0.13-0.201-0.282-0.333-0.455-0.397-0.459 0.25-0.792 0.727-1 1.432-0.202 0.696-0.238 1.316-0.109 1.86s0.345 0.851 0.648 0.922c0.489-0.22 0.84-0.668 1.054-1.345 0.22-0.686 0.267-1.294 0.141-1.823zM6.89 19.456c0.117-0.609 0.333-1.138 0.648-1.584 0.32-0.456 0.689-0.733 1.109-0.831 0.427-0.1 0.825-0.004 1.195 0.289 0.368 0.287 0.614 0.688 0.737 1.203 0.121 0.508 0.121 1.060 0 1.656-0.124 0.601-0.375 1.129-0.726 1.575l0.006-0.008c-0.351 0.449-0.772 0.73-1.262 0.845-0.363 0.085-0.705-0.009-1.025-0.285s-0.542-0.667-0.663-1.175c-0.122-0.516-0.129-1.077-0.018-1.685zM14.505 17.565c-0.058-0.247-0.154-0.464-0.283-0.658l0.005 0.007c-0.13-0.201-0.282-0.333-0.455-0.397-0.459 0.25-0.792 0.727-1 1.432-0.202 0.696-0.238 1.316-0.109 1.86s0.345 0.851 0.648 0.922c0.488-0.22 0.84-0.668 1.054-1.345 0.22-0.686 0.267-1.294 0.141-1.823zM11.723 18.32c0.118-0.609 0.334-1.138 0.648-1.584 0.319-0.456 0.689-0.733 1.109-0.831 0.427-0.1 0.824-0.004 1.195 0.29 0.369 0.286 0.615 0.687 0.737 1.203 0.121 0.508 0.12 1.060 0 1.656-0.124 0.601-0.375 1.129-0.726 1.576l0.006-0.008c-0.351 0.448-0.772 0.73-1.263 0.845-0.363 0.085-0.704-0.010-1.025-0.285-0.32-0.275-0.541-0.668-0.663-1.176-0.122-0.516-0.129-1.077-0.018-1.685zM19.548 11.344c0.113-0.026 0.277 0.047 0.491 0.22 0.22 0.165 0.351 0.339 0.395 0.523s0.078 0.728 0.106 1.631c0.025 0.896 0.030 1.831 0.014 2.805-0.021 2.183-0.113 3.293-0.277 3.332-0.1 0.024-0.225-0.011-0.374-0.102-0.144-0.1-0.227-0.196-0.248-0.289s-0.041-0.281-0.056-0.568c-0.529 0.87-1.053 1.367-1.572 1.488-0.313 0.074-0.631 0-0.954-0.223-0.317-0.224-0.511-0.488-0.584-0.792-0.104-0.438-0.11-0.985-0.019-1.64 0.107-0.71 0.332-1.349 0.656-1.924l-0.014 0.028c0.33-0.6 0.747-0.959 1.252-1.078s0.929 0.099 1.271 0.653c0.006-1.583-0.077-2.813-0.248-3.69-0.050-0.212 0.003-0.336 0.159-0.373zM19.612 16.823c-0.091-0.381-0.235-0.687-0.432-0.917-0.19-0.232-0.378-0.325-0.562-0.282-0.306 0.072-0.574 0.333-0.805 0.782-0.222 0.427-0.384 0.924-0.458 1.449l-0.003 0.024c-0.070 0.524-0.064 0.962 0.020 1.316 0.031 0.127 0.101 0.219 0.212 0.275s0.23 0.069 0.358 0.039c0.277-0.065 0.604-0.351 0.979-0.857 0.383-0.508 0.616-1.054 0.701-1.641l0.002-0.135-0.013-0.053zM26.421 16.184c0.138 0.579-0.009 1.128-0.441 1.648-0.434 0.512-0.991 0.848-1.675 1.009-0.675 0.159-1.274 0.117-1.798-0.125-0.525-0.25-0.824-0.53-0.898-0.841-0.050-0.211-0.012-0.333 0.116-0.363 0.114-0.027 0.378 0.090 0.793 0.351 0.157 0.090 0.355 0.163 0.593 0.218 0.245 0.055 0.489 0.053 0.731-0.004 0.498-0.117 0.909-0.348 1.232-0.693 0.331-0.346 0.461-0.668 0.39-0.964-0.046-0.191-0.232-0.404-0.558-0.64-0.326-0.237-0.678-0.449-1.052-0.637-0.402-0.215-0.745-0.434-1.069-0.676l0.022 0.016c-0.328-0.243-0.513-0.454-0.555-0.631-0.026-0.111-0.041-0.239-0.041-0.371 0-0.076 0.005-0.151 0.015-0.225l-0.001 0.009c0.024-0.215 0.068-0.378 0.132-0.489 0.205-0.369 0.568-0.749 1.091-1.141 0.53-0.393 0.993-0.636 1.392-0.73 0.206-0.048 0.397-0.023 0.57 0.078s0.279 0.226 0.314 0.373c0.018 0.071-0.044 0.145-0.183 0.223-0.125 0.073-0.336 0.183-0.549 0.288l-0.094 0.042c-0.287 0.134-0.531 0.274-0.762 0.432l0.018-0.012c-0.744 0.504-1.081 0.9-1.012 1.19 0.037 0.156 0.556 0.492 1.558 1.010 0.385 0.2 0.75 0.454 1.094 0.76 0.349 0.299 0.558 0.596 0.629 0.893zM28.87 16.716c0.032 0.134 0.126 0.183 0.282 0.146 0.27-0.063 0.58-0.215 0.929-0.453 0.354-0.247 0.552-0.376 0.595-0.386 0.128-0.030 0.208 0.022 0.24 0.156 0.049 0.205-0.109 0.491-0.471 0.86-0.356 0.368-0.708 0.592-1.057 0.674-0.341 0.080-0.648 0.055-0.919-0.075-0.273-0.137-0.433-0.304-0.48-0.502s-0.064-0.458-0.051-0.782c0.011-0.331 0.036-0.765 0.073-1.304 0.043-0.547 0.070-0.998 0.084-1.351-0.316 0.156-0.531 0.248-0.644 0.274s-0.241-0.002-0.381-0.089c-0.136-0.095-0.216-0.196-0.241-0.301-0.040-0.169 0.383-0.441 1.271-0.814-0.011-0.616-0.071-1.151-0.179-1.602-0.050-0.212-0.004-0.334 0.138-0.368 0.12-0.028 0.289 0.014 0.503 0.128 0.213 0.107 0.343 0.255 0.388 0.446 0.045 0.191 0.065 0.541 0.058 1.050 0.23-0.084 0.549-0.18 0.875-0.263l0.083-0.018c0.427-0.1 0.661-0.059 0.705 0.125 0.025 0.106-0.071 0.222-0.289 0.348-0.211 0.124-0.668 0.348-1.373 0.669-0.025 0.79-0.064 1.503-0.119 2.211l0.010-0.16c-0.058 0.767-0.068 1.229-0.031 1.384zM33.639 11.164c0.32-0.075 0.654 0.018 1.001 0.279 0.346 0.255 0.55 0.513 0.612 0.774 0.060 0.254 0.033 0.536-0.080 0.847 0.11 0.086 0.175 0.168 0.194 0.245 0.047 0.198 0.082 0.548 0.103 1.050 0.029 0.5 0.050 0.827 0.065 0.981 0.021 0.151 0.035 0.275 0.043 0.37 0.006 0.088 0.008 0.177 0.007 0.267 0.014 0.183-0.029 0.287-0.129 0.31-0.128 0.030-0.261-0.054-0.398-0.253-0.132-0.208-0.247-0.486-0.345-0.836-0.443 0.947-0.935 1.484-1.475 1.611-0.327 0.077-0.684 0.016-1.069-0.184-0.38-0.209-0.605-0.462-0.676-0.759-0.101-0.424-0.069-0.983 0.096-1.678 0.163-0.703 0.435-1.355 0.818-1.96s0.793-0.959 1.234-1.062zM34.574 12.914c-0.157-0.656-0.366-0.954-0.629-0.892-0.277 0.065-0.554 0.339-0.83 0.822-0.263 0.445-0.477 0.959-0.615 1.504l-0.009 0.041c-0.138 0.555-0.173 0.976-0.104 1.266 0.028 0.12 0.102 0.207 0.22 0.262 0.066 0.027 0.143 0.043 0.224 0.043 0.054 0 0.107-0.007 0.157-0.020l-0.004 0.001c0.334-0.078 0.659-0.39 0.972-0.934 0.312-0.55 0.473-1.166 0.483-1.848-0.003-0.111 0.042-0.188 0.137-0.233l-0.002-0.011z"></path>
<path fill="#bbf330" style="fill: var(--color3, #bbf330)" d="M31.525 20.209c-0.487 0.12-0.876 0.479-1.073 0.941-2.087 4.773-6.768 8.048-12.214 8.048-0.009 0-0.019 0-0.028-0h0.001c-3.194 0-6.121-1.117-8.41-2.977-0.387-0.314-0.895-0.451-1.38-0.331-1.084 0.267-1.487 1.579-0.634 2.3 2.784 2.369 6.421 3.811 10.395 3.811 0.010 0 0.021 0 0.031-0h-0.002c0.007 0 0.016 0 0.025 0 6.712 0 12.464-4.108 14.88-9.946l0.039-0.107c0.417-1.033-0.548-2.004-1.631-1.738zM4.193 13.954c0.562-0.138 0.982-0.598 1.123-1.159 1.441-5.732 6.657-9.993 12.895-9.993 3.94 0 7.473 1.7 9.904 4.397 0.385 0.427 0.967 0.636 1.525 0.499 0.981-0.242 1.422-1.382 0.759-2.146-2.967-3.409-7.314-5.552-12.161-5.552-0.009 0-0.018 0-0.027 0h0.001c-7.648 0-14.049 5.304-15.686 12.414-0.226 0.98 0.691 1.78 1.668 1.54z"></path>
</symbol>
</defs>
</svg>
